<svg style="display: none;" xmlns="http://www.w3.org/2000/svg">
    <defs>
        <!-- WhatsApp Icon -->
        <symbol id="whatsapp" viewBox="0 0 24 24">
            <path fill="currentColor" d="M17.472 14.382c-.297-.149-1.758-.867-2.03-.967-.273-.099-.471-.148-.67.15-.197.297-.767.966-.94 1.164-.173.199-.347.223-.644.075-.297-.15-1.255-.463-2.39-1.475-.883-.788-1.48-1.761-1.653-2.059-.173-.297-.018-.458.13-.606.134-.133.298-.347.446-.52.149-.174.198-.298.298-.497.099-.198.05-.371-.025-.52-.075-.149-.669-1.612-.916-2.207-.242-.579-.487-.5-.669-.51-.173-.008-.371-.01-.570-.01-.198 0-.52.074-.792.372-.272.297-1.04 1.016-1.04 2.479 0 1.462 1.065 2.875 1.213 3.074.149.198 2.096 3.2 5.077 4.487.709.306 1.262.489 1.694.625.712.227 1.36.195 1.871.118.571-.085 1.758-.719 2.006-1.413.248-.694.248-1.289.173-1.413-.074-.124-.272-.198-.57-.347m-5.421 7.403h-.004a9.87 9.87 0 01-5.031-1.378l-.361-.214-3.741.982.998-3.648-.235-.374a9.86 9.86 0 01-1.51-5.26c.001-5.45 4.436-9.884 9.888-9.884 2.64 0 5.122 1.03 6.988 2.898a9.825 9.825 0 012.893 6.994c-.003 5.45-4.437 9.884-9.885 9.884m8.413-18.297A11.815 11.815 0 0012.05 0C5.495 0 .16 5.335.157 11.892c0 2.096.547 4.142 1.588 5.945L.057 24l6.305-1.654a11.882 11.882 0 005.683 1.448h.005c6.554 0 11.890-5.335 11.893-11.893A11.821 11.821 0 0020.465 3.516"/>
        </symbol>
        
        <!-- Users Icon -->
        <symbol id="users" viewBox="0 0 24 24">
            <path fill="currentColor" d="M16 7a4 4 0 11-8 0 4 4 0 018 0zM12 14a7 7 0 00-7 7h14a7 7 0 00-7-7z"/>
        </symbol>
        
        <!-- Rocket Icon -->
        <symbol id="rocket" viewBox="0 0 24 24">
            <path fill="currentColor" d="M9.5 2.672a1.5 1.5 0 011 0L15.596 4.3a1.5 1.5 0 01.9 1.374v5.552a1.5 1.5 0 01-.9 1.374l-5.096 1.628a1.5 1.5 0 01-1 0L4.404 12.6a1.5 1.5 0 01-.9-1.374V5.674a1.5 1.5 0 01.9-1.374L9.5 2.672z"/>
            <path fill="currentColor" d="M6 14.25l.22.22a.75.75 0 001.28-.531V7.75H6v6.5z"/>
            <path fill="currentColor" d="M8.25 16.25v-1.5a.75.75 0 01.75-.75h6a.75.75 0 01.75.75v1.5a.75.75 0 01-.75.75h-6a.75.75 0 01-.75-.75z"/>
        </symbol>
        
        <!-- Quote Icon -->
        <symbol id="quote" viewBox="0 0 24 24">
            <path fill="currentColor" d="M4.583 17.321C3.553 16.227 3 15 3 13.011c0-3.5 2.457-6.637 6.03-8.188l.893 1.378c-3.335 1.804-3.987 4.145-4.247 5.621.537-.278 1.24-.375 1.929-.311 1.804.167 3.226 1.648 3.226 3.489a3.5 3.5 0 01-3.5 3.5c-1.073 0-2.099-.49-2.748-1.179zm10 0C13.553 16.227 13 15 13 13.011c0-3.5 2.457-6.637 6.03-8.188l.893 1.378c-3.335 1.804-3.987 4.145-4.247 5.621.537-.278 1.24-.375 1.929-.311 1.804.167 3.226 1.648 3.226 3.489a3.5 3.5 0 01-3.5 3.5c-1.073 0-2.099-.49-2.748-1.179z"/>
        </symbol>
        
        <!-- Instagram Icon -->
        <symbol id="instagram" viewBox="0 0 24 24">
            <path fill="currentColor" d="M12.017 0C8.396 0 7.932.013 6.715.06 5.498.107 4.677.277 3.967.525a5.88 5.88 0 00-2.141 1.384A5.88 5.88 0 00.525 3.967C.277 4.677.107 5.498.06 6.715.013 7.932 0 8.396 0 12.017c0 3.62.013 4.085.06 5.302.047 1.217.217 2.038.465 2.748a5.88 5.88 0 001.384 2.141 5.88 5.88 0 002.141 1.384c.71.248 1.531.418 2.748.465 1.217.047 1.681.06 5.302.06s4.085-.013 5.302-.06c1.217-.047 2.038-.217 2.748-.465a5.88 5.88 0 002.141-1.384 5.88 5.88 0 001.384-2.141c.248-.71.418-1.531.465-2.748.047-1.217.06-1.681.06-5.302s-.013-4.085-.06-5.302c-.047-1.217-.217-2.038-.465-2.748a5.88 5.88 0 00-1.384-2.141A5.88 5.88 0 0020.048.525c-.71-.248-1.531-.418-2.748-.465C16.083.013 15.62 0 12.017 0zM12.017 2.23c3.56 0 3.983.013 5.385.06 1.065.047 1.673.22 2.126.365.526.205.932.456 1.35.874.417.418.668.824.873 1.35.145.453.318 1.061.365 2.126.047 1.402.06 1.825.06 5.385s-.013 3.983-.06 5.385c-.047 1.065-.22 1.673-.365 2.126-.205.526-.456.932-.874 1.35a3.62 3.62 0 01-1.35.873c-.453.145-1.061.318-2.126.365-1.402.047-1.825.06-5.385.06s-3.983-.013-5.385-.06c-1.065-.047-1.673-.22-2.126-.365a3.62 3.62 0 01-1.35-.874 3.62 3.62 0 01-.873-1.35c-.145-.453-.318-1.061-.365-2.126-.047-1.402-.06-1.825-.06-5.385s.013-3.983.06-5.385c.047-1.065.22-1.673.365-2.126.205-.526.456-.932.874-1.35a3.62 3.62 0 011.35-.873c.453-.145 1.061-.318 2.126-.365 1.402-.047 1.825-.06 5.385-.06z"/>
            <path fill="currentColor" d="M12.017 5.838a6.179 6.179 0 100 12.358 6.179 6.179 0 000-12.358zM12.017 16a4 4 0 110-8 4 4 0 010 8z"/>
            <circle fill="currentColor" cx="18.406" cy="5.594" r="1.44"/>
        </symbol>
        
        <!-- LinkedIn Icon -->
        <symbol id="linkedin" viewBox="0 0 24 24">
            <path fill="currentColor" d="M20.447 20.452h-3.554v-5.569c0-1.328-.027-3.037-1.852-3.037-1.853 0-2.136 1.445-2.136 2.939v5.667H9.351V9h3.414v1.561h.046c.477-.9 1.637-1.85 3.37-1.85 3.601 0 4.267 2.37 4.267 5.455v6.286zM5.337 7.433a2.062 2.062 0 01-2.063-2.065 2.064 2.064 0 112.063 2.065zm1.782 13.019H3.555V9h3.564v11.452zM22.225 0H1.771C.792 0 0 .774 0 1.729v20.542C0 23.227.792 24 1.771 24h20.451C23.2 24 24 23.227 24 22.271V1.729C24 .774 23.2 0 22.222 0h.003z"/>
        </symbol>
    </defs>
</svg>
